<svg width="92" height="28" viewBox="0 0 92 28" fill="none" xmlns="http://www.w3.org/2000/svg">
<path d="M34.7399 25.7973C34.4844 25.7973 34.2701 25.7579 34.0967 25.6785C33.9235 25.5992 33.7907 25.4971 33.698 25.3723C33.6056 25.2475 33.5565 25.1161 33.5505 24.978C33.5505 24.9545 33.5602 24.9332 33.5793 24.9141C33.5984 24.895 33.6211 24.8856 33.6475 24.8856H33.8722C33.9073 24.8856 33.9339 24.8943 33.9513 24.9119C33.969 24.9296 33.9808 24.9502 33.9866 24.9736C34.0043 25.044 34.041 25.1139 34.0967 25.1829C34.1526 25.2518 34.2326 25.3091 34.3369 25.3546C34.4411 25.4001 34.5754 25.4228 34.7399 25.4228C34.9924 25.4228 35.1782 25.3781 35.2972 25.2886C35.416 25.1991 35.4755 25.0793 35.4755 24.9296C35.4755 24.8268 35.444 24.7438 35.3809 24.6807C35.3178 24.6176 35.2215 24.561 35.0923 24.5111C34.9632 24.4613 34.7958 24.4069 34.5901 24.3481C34.3758 24.2864 34.198 24.2189 34.057 24.1454C33.9162 24.0721 33.8112 23.9811 33.7421 23.8723C33.6731 23.7637 33.6385 23.6258 33.6385 23.4581C33.6385 23.2997 33.6813 23.158 33.7665 23.0331C33.8516 22.9083 33.975 22.8091 34.1364 22.7358C34.2979 22.6623 34.4917 22.6258 34.7179 22.6258C34.9 22.6258 35.0592 22.65 35.1959 22.6984C35.3323 22.7467 35.4462 22.8116 35.5372 22.8921C35.6284 22.9729 35.6973 23.0597 35.7442 23.1521C35.7914 23.2446 35.8163 23.335 35.8192 23.4231C35.8192 23.4436 35.8117 23.4635 35.7972 23.4826C35.7825 23.5017 35.759 23.5111 35.7266 23.5111H35.4932C35.4726 23.5111 35.4513 23.5053 35.4293 23.4935C35.4073 23.4819 35.3903 23.4598 35.3787 23.4274C35.3611 23.307 35.2936 23.2056 35.176 23.1234C35.0585 23.0414 34.9058 23.0002 34.7179 23.0002C34.527 23.0002 34.3722 23.0368 34.2532 23.1103C34.1342 23.1836 34.0747 23.2983 34.0747 23.4538C34.0747 23.5537 34.1027 23.6367 34.1584 23.7027C34.2142 23.7687 34.3023 23.8268 34.4228 23.8766C34.5432 23.9267 34.7002 23.9794 34.894 24.0353C35.1291 24.0999 35.3214 24.1681 35.4711 24.2402C35.6209 24.312 35.7319 24.4018 35.8037 24.5089C35.8756 24.6161 35.9116 24.7533 35.9116 24.9207C35.9116 25.1057 35.8633 25.2637 35.7663 25.3943C35.6695 25.5249 35.5335 25.6248 35.3589 25.6938C35.184 25.7629 34.9777 25.7973 34.7399 25.7973ZM37.8761 25.7973C37.6293 25.7973 37.417 25.7533 37.2394 25.6652C37.0616 25.5772 36.9252 25.4429 36.8296 25.2622C36.7343 25.0815 36.6867 24.8488 36.6867 24.5639V22.7755C36.6867 22.7431 36.6954 22.7175 36.713 22.6984C36.7307 22.6792 36.7556 22.6698 36.7878 22.6698H37.0125C37.0449 22.6698 37.0706 22.6792 37.0897 22.6984C37.1088 22.7175 37.1182 22.7431 37.1182 22.7755V24.5728C37.1182 24.8607 37.1857 25.0735 37.3209 25.2114C37.4559 25.3495 37.641 25.4185 37.8761 25.4185C38.1078 25.4185 38.2921 25.3495 38.4288 25.2114C38.5652 25.0735 38.6337 24.8607 38.6337 24.5728V22.7755C38.6337 22.7431 38.6431 22.7175 38.6622 22.6984C38.6813 22.6792 38.7055 22.6698 38.7348 22.6698H38.9639C38.9934 22.6698 39.0176 22.6792 39.0367 22.6984C39.0558 22.7175 39.0652 22.7431 39.0652 22.7755V24.5639C39.0652 24.8488 39.0176 25.0815 38.9223 25.2622C38.8267 25.4429 38.6908 25.5772 38.5147 25.6652C38.3386 25.7533 38.1255 25.7973 37.8761 25.7973ZM41.1484 25.7973C40.8872 25.7973 40.6661 25.7489 40.4854 25.6519C40.305 25.5552 40.1668 25.4185 40.0715 25.2424C39.976 25.066 39.9225 24.859 39.9107 24.6212C39.9078 24.492 39.9063 24.3549 39.9063 24.2092C39.9063 24.0641 39.9078 23.9253 39.9107 23.7932C39.9225 23.5551 39.976 23.3488 40.0715 23.1742C40.1668 22.9995 40.3057 22.8643 40.4878 22.769C40.6697 22.6734 40.8901 22.6258 41.1484 22.6258C41.3541 22.6258 41.5333 22.6551 41.6859 22.7138C41.8386 22.7726 41.9641 22.8466 42.0626 22.9361C42.161 23.0259 42.2343 23.119 42.2827 23.216C42.3313 23.313 42.357 23.3982 42.3599 23.4715C42.3628 23.4978 42.3555 23.5191 42.3379 23.5353C42.3202 23.5515 42.2967 23.5595 42.2675 23.5595H42.0074C41.9782 23.5595 41.9569 23.5537 41.9436 23.5421C41.9305 23.5302 41.9179 23.5097 41.9061 23.4804C41.8797 23.404 41.8364 23.329 41.7762 23.2557C41.7159 23.1821 41.6354 23.1212 41.534 23.0728C41.4327 23.0244 41.3042 23.0002 41.1484 23.0002C40.9136 23.0002 40.7249 23.0634 40.5824 23.1896C40.4399 23.3159 40.363 23.5244 40.3512 23.8152C40.3424 24.0764 40.3424 24.3377 40.3512 24.5992C40.363 24.8928 40.4407 25.1035 40.5846 25.2312C40.7285 25.359 40.9165 25.4228 41.1484 25.4228C41.3042 25.4228 41.4428 25.3936 41.5648 25.3348C41.6867 25.276 41.7829 25.1872 41.8533 25.0685C41.9237 24.9494 41.959 24.7975 41.959 24.6125V24.4274H41.2982C41.2689 24.4274 41.2447 24.4178 41.2256 24.3989C41.2065 24.3798 41.1971 24.3539 41.1971 24.3217V24.1807C41.1971 24.1483 41.2065 24.1226 41.2256 24.1035C41.2447 24.0844 41.2689 24.075 41.2982 24.075H42.2938C42.3262 24.075 42.3512 24.0844 42.3688 24.1035C42.3862 24.1226 42.3952 24.1483 42.3952 24.1807V24.6035C42.3952 24.8445 42.3461 25.0544 42.2476 25.2334C42.1492 25.4127 42.006 25.5515 41.818 25.6497C41.6301 25.7482 41.407 25.7973 41.1484 25.7973ZM43.1876 23.4758C43.1642 23.4758 43.1458 23.4671 43.1327 23.4494C43.1194 23.4318 43.1143 23.4098 43.1172 23.3834L43.2184 22.7535C43.2244 22.7182 43.2367 22.6882 43.2559 22.6633C43.275 22.6381 43.3037 22.6258 43.342 22.6258H43.6371C43.6576 22.6258 43.6743 22.6338 43.6876 22.65C43.7009 22.6662 43.7075 22.6829 43.7075 22.7005C43.7075 22.724 43.7017 22.7475 43.6898 22.7712L43.4607 23.3745C43.4491 23.404 43.4336 23.4282 43.4145 23.4473C43.3954 23.4664 43.3683 23.4758 43.333 23.4758H43.1876ZM45.6409 25.7973C45.3942 25.7973 45.1821 25.7533 45.0043 25.6652C44.8267 25.5772 44.6901 25.4429 44.5947 25.2622C44.4992 25.0815 44.4515 24.8488 44.4515 24.5639V22.7755C44.4515 22.7431 44.4603 22.7175 44.4779 22.6984C44.4956 22.6792 44.5205 22.6698 44.5529 22.6698H44.7774C44.8098 22.6698 44.8354 22.6792 44.8545 22.6984C44.8737 22.7175 44.8833 22.7431 44.8833 22.7755V24.5728C44.8833 24.8607 44.9508 25.0735 45.0858 25.2114C45.221 25.3495 45.4058 25.4185 45.6409 25.4185C45.8729 25.4185 46.0573 25.3495 46.1937 25.2114C46.3304 25.0735 46.3986 24.8607 46.3986 24.5728V22.7755C46.3986 22.7431 46.408 22.7175 46.4271 22.6984C46.4462 22.6792 46.4704 22.6698 46.4999 22.6698H46.729C46.7583 22.6698 46.7825 22.6792 46.8016 22.6984C46.8207 22.7175 46.8304 22.7431 46.8304 22.7755V24.5639C46.8304 24.8488 46.7825 25.0815 46.6871 25.2622C46.5916 25.4429 46.4559 25.5772 46.2796 25.6652C46.1035 25.7533 45.8906 25.7973 45.6409 25.7973ZM47.8916 25.7533C47.8591 25.7533 47.8342 25.7438 47.8166 25.7247C47.7989 25.7056 47.7902 25.6814 47.7902 25.6519V22.7755C47.7902 22.7431 47.7989 22.7175 47.8166 22.6984C47.8342 22.6792 47.8591 22.6698 47.8916 22.6698H48.9663C49.2982 22.6698 49.5611 22.7475 49.7549 22.9032C49.9486 23.0588 50.0456 23.2893 50.0456 23.5948C50.0456 23.821 49.989 24.0053 49.8761 24.1478C49.7629 24.29 49.6095 24.3892 49.4155 24.4451L50.094 25.6168C50.1027 25.6345 50.1073 25.6505 50.1073 25.6652C50.1073 25.6887 50.0977 25.7092 50.0785 25.7269C50.0594 25.7446 50.0381 25.7533 50.0147 25.7533H49.8033C49.7534 25.7533 49.7167 25.7402 49.6932 25.7136C49.6697 25.6872 49.6492 25.6609 49.6315 25.6345L48.9927 24.5155H48.2217V25.6519C48.2217 25.6814 48.2123 25.7056 48.1932 25.7247C48.1741 25.7438 48.1484 25.7533 48.116 25.7533H47.8916ZM48.2217 24.141H48.9486C49.169 24.141 49.3335 24.0948 49.4421 24.0022C49.5507 23.9098 49.6052 23.7726 49.6052 23.5905C49.6052 23.4112 49.5514 23.2748 49.4443 23.1807C49.3371 23.0868 49.1719 23.0399 48.9486 23.0399H48.2217V24.141ZM51.6397 25.7533C51.6105 25.7533 51.5863 25.7438 51.5672 25.7247C51.5481 25.7056 51.5384 25.6814 51.5384 25.6519V23.0617H50.6927C50.6632 23.0617 50.639 23.0522 50.6199 23.0331C50.601 23.014 50.5914 22.9898 50.5914 22.9606V22.7755C50.5914 22.7431 50.601 22.7175 50.6199 22.6984C50.639 22.6792 50.6632 22.6698 50.6927 22.6698H52.8158C52.8483 22.6698 52.8739 22.6792 52.893 22.6984C52.9121 22.7175 52.9215 22.7431 52.9215 22.7755V22.9606C52.9215 22.9898 52.9121 23.014 52.893 23.0331C52.8739 23.0522 52.8483 23.0617 52.8158 23.0617H51.9745V25.6519C51.9745 25.6814 51.9651 25.7056 51.946 25.7247C51.9269 25.7438 51.9012 25.7533 51.8688 25.7533H51.6397ZM53.1064 25.7533C53.0827 25.7533 53.0621 25.7446 53.0447 25.7269C53.027 25.7092 53.0181 25.6887 53.0181 25.6652C53.0181 25.6505 53.0195 25.6345 53.0227 25.6168L54.1151 22.7666C54.1267 22.7373 54.1429 22.7138 54.1634 22.6962C54.184 22.6785 54.215 22.6698 54.2561 22.6698H54.5556C54.5967 22.6698 54.6274 22.6785 54.648 22.6962C54.6685 22.7138 54.6847 22.7373 54.6966 22.7666L55.7846 25.6168C55.7904 25.6345 55.7933 25.6505 55.7933 25.6652C55.7933 25.6887 55.7846 25.7092 55.767 25.7269C55.7493 25.7446 55.7288 25.7533 55.7053 25.7533H55.4806C55.4455 25.7533 55.4196 25.7446 55.4034 25.7269C55.3874 25.7092 55.3763 25.693 55.3705 25.6785L55.1281 25.053H53.6833L53.4411 25.6785C53.438 25.693 53.4278 25.7092 53.4102 25.7269C53.3925 25.7446 53.3662 25.7533 53.3308 25.7533H53.1064ZM53.811 24.6742H55.0004L54.4058 23.1103L53.811 24.6742ZM57.5548 25.7533C57.5227 25.7533 57.4977 25.7438 57.4801 25.7247C57.4624 25.7056 57.4537 25.6814 57.4537 25.6519V22.7755C57.4537 22.7431 57.4624 22.7175 57.4801 22.6984C57.4977 22.6792 57.5227 22.6698 57.5548 22.6698H57.7752C57.8076 22.6698 57.8333 22.6792 57.8524 22.6984C57.8715 22.7175 57.8809 22.7431 57.8809 22.7755V23.8679L59.057 22.7402C59.0689 22.7286 59.0887 22.7138 59.1165 22.6962C59.1443 22.6785 59.1818 22.6698 59.229 22.6698H59.4668C59.4902 22.6698 59.5108 22.6785 59.5285 22.6962C59.5461 22.7138 59.5548 22.7344 59.5548 22.7579C59.5548 22.7813 59.549 22.8004 59.5372 22.8152L58.176 24.1454L59.6255 25.6035C59.64 25.6212 59.6475 25.6418 59.6475 25.6652C59.6475 25.6887 59.6385 25.7092 59.6209 25.7269C59.6035 25.7446 59.5827 25.7533 59.5592 25.7533H59.3127C59.2626 25.7533 59.2244 25.7438 59.198 25.7247C59.1717 25.7056 59.1526 25.6901 59.1407 25.6785L57.8809 24.4405V25.6519C57.8809 25.6814 57.8715 25.7056 57.8524 25.7247C57.8333 25.7438 57.8076 25.7533 57.7752 25.7533H57.5548ZM61.2769 25.7973C61.0244 25.7973 60.8083 25.754 60.6293 25.6674C60.4501 25.5808 60.3122 25.4473 60.2152 25.2666C60.1182 25.0859 60.064 24.859 60.0522 24.5859C60.0493 24.4567 60.0478 24.3326 60.0478 24.2138C60.0478 24.0948 60.0493 23.9707 60.0522 23.8416C60.064 23.5714 60.1204 23.3459 60.2217 23.1655C60.3231 22.9848 60.4641 22.8495 60.6446 22.76C60.8253 22.6705 61.036 22.6258 61.2769 22.6258C61.5147 22.6258 61.7239 22.6705 61.9046 22.76C62.0851 22.8495 62.2268 22.9848 62.3296 23.1655C62.4324 23.3459 62.4883 23.5714 62.497 23.8416C62.5028 23.9707 62.506 24.0948 62.506 24.2138C62.506 24.3326 62.5028 24.4567 62.497 24.5859C62.4883 24.859 62.4346 25.0859 62.3362 25.2666C62.238 25.4473 62.0991 25.5808 61.9201 25.6674C61.7409 25.754 61.5265 25.7973 61.2769 25.7973ZM61.2769 25.4228C61.4999 25.4228 61.6828 25.3553 61.8253 25.2204C61.9678 25.0851 62.0449 24.8665 62.0565 24.5639C62.0623 24.4318 62.0652 24.3135 62.0652 24.2092C62.0652 24.1052 62.0623 23.9884 62.0565 23.8592C62.0507 23.6565 62.0132 23.492 61.9443 23.3657C61.8751 23.2395 61.7834 23.1471 61.6688 23.0883C61.5544 23.0295 61.4237 23.0002 61.2769 23.0002C61.1301 23.0002 60.9992 23.0295 60.8848 23.0883C60.7701 23.1471 60.6784 23.2395 60.6095 23.3657C60.5403 23.492 60.5016 23.6565 60.4927 23.8592C60.4898 23.9884 60.4883 24.1052 60.4883 24.2092C60.4883 24.3135 60.4898 24.4318 60.4927 24.5639C60.5045 24.8665 60.5824 25.0851 60.7261 25.2204C60.87 25.3553 61.0536 25.4228 61.2769 25.4228ZM63.4745 25.7533C63.4453 25.7533 63.4211 25.7438 63.402 25.7247C63.3828 25.7056 63.3732 25.6814 63.3732 25.6519V22.7755C63.3732 22.7431 63.3828 22.7175 63.402 22.6984C63.4211 22.6792 63.4453 22.6698 63.4745 22.6698H63.6949C63.73 22.6698 63.7566 22.6785 63.774 22.6962C63.7917 22.7138 63.8035 22.7286 63.8093 22.7402L64.7389 24.5198L65.6772 22.7402C65.683 22.7286 65.6939 22.7138 65.7101 22.6962C65.7263 22.6785 65.752 22.6698 65.7873 22.6698H66.0031C66.0355 22.6698 66.0611 22.6792 66.0802 22.6984C66.0993 22.7175 66.1088 22.7431 66.1088 22.7755V25.6519C66.1088 25.6814 66.0993 25.7056 66.0802 25.7247C66.0611 25.7438 66.0355 25.7533 66.0031 25.7533H65.7873C65.7578 25.7533 65.7336 25.7438 65.7145 25.7247C65.6954 25.7056 65.6859 25.6814 65.6859 25.6519V23.4848L64.9503 24.9207C64.9385 24.9502 64.9208 24.9729 64.8974 24.9891C64.8739 25.0053 64.8446 25.0133 64.8093 25.0133H64.6726C64.6347 25.0133 64.6052 25.0053 64.5846 24.9891C64.564 24.9729 64.5466 24.9502 64.5319 24.9207L63.7917 23.4848V25.6519C63.7917 25.6814 63.7822 25.7056 63.7631 25.7247C63.744 25.7438 63.7198 25.7533 63.6905 25.7533H63.4745ZM67.1963 25.7533C67.1642 25.7533 67.1393 25.7438 67.1216 25.7247C67.1039 25.7056 67.095 25.6814 67.095 25.6519V22.7755C67.095 22.7431 67.1039 22.7175 67.1216 22.6984C67.1393 22.6792 67.1642 22.6698 67.1963 22.6698H68.3154C68.5326 22.6698 68.7213 22.7051 68.8814 22.7755C69.0415 22.8459 69.1656 22.9509 69.2537 23.0905C69.3417 23.23 69.3857 23.404 69.3857 23.6125C69.3857 23.821 69.3417 23.9942 69.2537 24.1323C69.1656 24.2702 69.0415 24.3744 68.8814 24.4451C68.7213 24.5155 68.5326 24.5508 68.3154 24.5508H67.5357V25.6519C67.5357 25.6814 67.5261 25.7056 67.5069 25.7247C67.4878 25.7438 67.4622 25.7533 67.43 25.7533H67.1963ZM67.5311 24.1807H68.2934C68.5106 24.1807 68.6736 24.1323 68.7822 24.0353C68.8908 23.9383 68.9453 23.7975 68.9453 23.6125C68.9453 23.4303 68.8923 23.2893 68.7866 23.1896C68.6809 23.0897 68.5166 23.0399 68.2934 23.0399H67.5311V24.1807ZM69.7641 25.7533C69.7406 25.7533 69.7201 25.7446 69.7026 25.7269C69.685 25.7092 69.676 25.6887 69.676 25.6652C69.676 25.6505 69.6775 25.6345 69.6804 25.6168L70.773 22.7666C70.7846 22.7373 70.8008 22.7138 70.8214 22.6962C70.842 22.6785 70.8729 22.6698 70.914 22.6698H71.2135C71.2546 22.6698 71.2854 22.6785 71.3059 22.6962C71.3265 22.7138 71.3427 22.7373 71.3545 22.7666L72.4426 25.6168C72.4484 25.6345 72.4513 25.6505 72.4513 25.6652C72.4513 25.6887 72.4426 25.7092 72.4249 25.7269C72.4073 25.7446 72.3867 25.7533 72.3633 25.7533H72.1385C72.1032 25.7533 72.0776 25.7446 72.0614 25.7269C72.0454 25.7092 72.0343 25.693 72.0285 25.6785L71.7861 25.053H70.3412L70.0991 25.6785C70.096 25.693 70.0858 25.7092 70.0681 25.7269C70.0505 25.7446 70.0241 25.7533 69.9888 25.7533H69.7641ZM70.469 24.6742H71.6584L71.0638 23.1103L70.469 24.6742ZM73.2481 25.7533C73.2159 25.7533 73.191 25.7438 73.1734 25.7247C73.1557 25.7056 73.147 25.6814 73.147 25.6519V22.7755C73.147 22.7431 73.1557 22.7175 73.1734 22.6984C73.191 22.6792 73.2159 22.6698 73.2481 22.6698H73.4508C73.4861 22.6698 73.5125 22.6778 73.5302 22.694C73.5478 22.7102 73.558 22.7225 73.5609 22.7315L75.0234 24.978V22.7755C75.0234 22.7431 75.0323 22.7175 75.05 22.6984C75.0674 22.6792 75.0926 22.6698 75.1247 22.6698H75.3362C75.3686 22.6698 75.3942 22.6792 75.4133 22.6984C75.4324 22.7175 75.4419 22.7431 75.4419 22.7755V25.6476C75.4419 25.6771 75.4324 25.702 75.4133 25.7225C75.3942 25.7431 75.37 25.7533 75.3408 25.7533H75.1291C75.0969 25.7533 75.0727 25.7446 75.0565 25.7269C75.0403 25.7092 75.0294 25.6976 75.0234 25.6916L73.5652 23.4671V25.6519C73.5652 25.6814 73.5558 25.7056 73.5367 25.7247C73.5176 25.7438 73.4919 25.7533 73.4595 25.7533H73.2481ZM76.534 25.7533C76.5016 25.7533 76.4767 25.7438 76.459 25.7247C76.4414 25.7056 76.4327 25.6814 76.4327 25.6519V22.7712C76.4327 22.7417 76.4414 22.7175 76.459 22.6984C76.4767 22.6792 76.5016 22.6698 76.534 22.6698H76.7675C76.7996 22.6698 76.8248 22.6792 76.8425 22.6984C76.8599 22.7175 76.8688 22.7417 76.8688 22.7712V25.6519C76.8688 25.6814 76.8599 25.7056 76.8425 25.7247C76.8248 25.7438 76.7996 25.7533 76.7675 25.7533H76.534ZM78.7846 25.7533C78.7551 25.7533 78.7309 25.7438 78.7118 25.7247C78.6927 25.7056 78.6833 25.6814 78.6833 25.6519V24.6125L77.6216 22.8152C77.6187 22.8062 77.6158 22.7975 77.6129 22.7886C77.61 22.7799 77.6085 22.7697 77.6085 22.7579C77.6085 22.7344 77.6172 22.7138 77.6349 22.6962C77.6523 22.6785 77.6731 22.6698 77.6966 22.6698H77.9257C77.952 22.6698 77.9755 22.6763 77.9961 22.6896C78.0166 22.7027 78.0314 22.7211 78.0401 22.7446L78.8991 24.172L79.758 22.7446C79.7728 22.7211 79.7897 22.7027 79.8088 22.6896C79.8279 22.6763 79.8507 22.6698 79.877 22.6698H80.1018C80.1281 22.6698 80.1501 22.6785 80.1678 22.6962C80.1855 22.7138 80.1942 22.7344 80.1942 22.7579C80.1942 22.7697 80.1927 22.7799 80.1898 22.7886C80.1869 22.7975 80.1826 22.8062 80.1765 22.8152L79.1194 24.6125V25.6519C79.1194 25.6814 79.1097 25.7056 79.0906 25.7247C79.0715 25.7438 79.0459 25.7533 79.0137 25.7533H78.7846ZM80.4097 25.7533C80.3862 25.7533 80.3657 25.7446 80.348 25.7269C80.3304 25.7092 80.3214 25.6887 80.3214 25.6652C80.3214 25.6505 80.3231 25.6345 80.326 25.6168L81.4184 22.7666C81.4303 22.7373 81.4462 22.7138 81.4668 22.6962C81.4873 22.6785 81.5183 22.6698 81.5594 22.6698H81.8589C81.9 22.6698 81.931 22.6785 81.9513 22.6962C81.9719 22.7138 81.9881 22.7373 81.9999 22.7666L83.088 25.6168C83.0938 25.6345 83.0967 25.6505 83.0967 25.6652C83.0967 25.6887 83.088 25.7092 83.0703 25.7269C83.0527 25.7446 83.0321 25.7533 83.0086 25.7533H82.7839C82.7488 25.7533 82.723 25.7446 82.707 25.7269C82.6908 25.7092 82.6797 25.693 82.6739 25.6785L82.4315 25.053H80.9866L80.7445 25.6785C80.7416 25.693 80.7312 25.7092 80.7135 25.7269C80.6961 25.7446 80.6695 25.7533 80.6342 25.7533H80.4097ZM81.1146 24.6742H82.3037L81.7092 23.1103L81.1146 24.6742ZM84.7394 25.7973C84.484 25.7973 84.2696 25.7579 84.0962 25.6785C83.923 25.5992 83.7902 25.4971 83.6976 25.3723C83.6052 25.2475 83.556 25.1161 83.55 24.978C83.55 24.9545 83.5597 24.9332 83.5788 24.9141C83.5979 24.895 83.6206 24.8856 83.647 24.8856H83.8717C83.9068 24.8856 83.9334 24.8943 83.9508 24.9119C83.9685 24.9296 83.9803 24.9502 83.9861 24.9736C84.0038 25.044 84.0406 25.1139 84.0962 25.1829C84.1521 25.2518 84.2322 25.3091 84.3364 25.3546C84.4407 25.4001 84.5749 25.4228 84.7394 25.4228C84.9919 25.4228 85.1777 25.3781 85.2967 25.2886C85.4155 25.1991 85.475 25.0793 85.475 24.9296C85.475 24.8268 85.4436 24.7438 85.3804 24.6807C85.3173 24.6176 85.221 24.561 85.0919 24.5111C84.9627 24.4613 84.7953 24.4069 84.5897 24.3481C84.3753 24.2864 84.1976 24.2189 84.0565 24.1454C83.9157 24.0721 83.8108 23.9811 83.7416 23.8723C83.6726 23.7637 83.6381 23.6258 83.6381 23.4581C83.6381 23.2997 83.6809 23.158 83.7658 23.0331C83.8512 22.9083 83.9745 22.8091 84.1359 22.7358C84.2975 22.6623 84.4912 22.6258 84.7174 22.6258C84.8995 22.6258 85.0587 22.65 85.1954 22.6984C85.3318 22.7467 85.4457 22.8116 85.5367 22.8921C85.6279 22.9729 85.6968 23.0597 85.7438 23.1521C85.7907 23.2446 85.8158 23.335 85.8187 23.4231C85.8187 23.4436 85.8112 23.4635 85.7967 23.4826C85.782 23.5017 85.7585 23.5111 85.7261 23.5111H85.4927C85.4721 23.5111 85.4508 23.5053 85.4288 23.4935C85.4068 23.4819 85.3899 23.4598 85.3783 23.4274C85.3606 23.307 85.2931 23.2056 85.1755 23.1234C85.058 23.0414 84.9053 23.0002 84.7174 23.0002C84.5265 23.0002 84.3717 23.0368 84.2527 23.1103C84.1337 23.1836 84.0742 23.2983 84.0742 23.4538C84.0742 23.5537 84.102 23.6367 84.1579 23.7027C84.2138 23.7687 84.3018 23.8268 84.4223 23.8766C84.5427 23.9267 84.6997 23.9794 84.8935 24.0353C85.1286 24.0999 85.3209 24.1681 85.4706 24.2402C85.6204 24.312 85.7314 24.4018 85.8033 24.5089C85.8751 24.6161 85.9111 24.7533 85.9111 24.9207C85.9111 25.1057 85.8628 25.2637 85.7658 25.3943C85.669 25.5249 85.5331 25.6248 85.3584 25.6938C85.1835 25.7629 84.9772 25.7973 84.7394 25.7973ZM86.8139 25.7533C86.7815 25.7533 86.7566 25.7438 86.7389 25.7247C86.7213 25.7056 86.7126 25.6814 86.7126 25.6519V22.7712C86.7126 22.7417 86.7213 22.7175 86.7389 22.6984C86.7566 22.6792 86.7815 22.6698 86.8139 22.6698H87.0473C87.0795 22.6698 87.1047 22.6792 87.1221 22.6984C87.1397 22.7175 87.1487 22.7417 87.1487 22.7712V25.6519C87.1487 25.6814 87.1397 25.7056 87.1221 25.7247C87.1047 25.7438 87.0795 25.7533 87.0473 25.7533H86.8139Z" fill="#2B2A29"/>
<path d="M84.3458 13.553H88.0732V13.515C88.0732 13.0585 88.0004 12.6623 87.8545 12.3263C87.7087 11.9903 87.4965 11.7274 87.2176 11.537C86.9385 11.3469 86.6027 11.2518 86.2096 11.2518C85.8166 11.2518 85.4806 11.3469 85.2017 11.537C84.9228 11.7274 84.7104 11.9903 84.5645 12.3263C84.4186 12.6623 84.3458 13.0585 84.3458 13.515V13.553ZM86.2285 19.6195C84.7706 19.6195 83.6136 19.2138 82.758 18.4023C81.9022 17.591 81.4489 16.4119 81.3981 14.8653C81.3981 14.7637 81.3981 14.6275 81.3981 14.4565C81.3981 14.2852 81.3981 14.1488 81.3981 14.0474C81.4489 13.0711 81.6707 12.2313 82.0638 11.5276C82.4569 10.8239 83.0084 10.2852 83.7184 9.91122C84.4283 9.53701 85.2588 9.35002 86.2096 9.35002C87.2745 9.35002 88.1651 9.56894 88.8816 10.0063C89.5979 10.4436 90.1366 11.0394 90.498 11.7939C90.8594 12.5481 91.0401 13.4134 91.0401 14.3897V14.827C91.0401 14.954 90.9924 15.0617 90.8974 15.1505C90.8023 15.239 90.6913 15.2835 90.5645 15.2835H84.3458C84.3458 15.2961 84.3458 15.3183 84.3458 15.35C84.3458 15.3817 84.3458 15.4103 84.3458 15.4357C84.3587 15.8413 84.4378 16.2124 84.5836 16.5481C84.7295 16.8841 84.9385 17.1536 85.2111 17.3566C85.4837 17.5593 85.8103 17.6606 86.1905 17.6606C86.5077 17.6606 86.7675 17.6164 86.9704 17.5276C87.1731 17.4388 87.341 17.3312 87.4743 17.2044C87.6073 17.0776 87.7055 16.9698 87.7689 16.881C87.8831 16.7542 87.975 16.6749 88.0447 16.6432C88.1146 16.6115 88.2254 16.5958 88.3775 16.5958H90.3553C90.4823 16.5958 90.5868 16.6306 90.669 16.7003C90.7515 16.77 90.7863 16.8682 90.7738 16.9949C90.7609 17.1979 90.6564 17.4482 90.46 17.7462C90.2633 18.0443 89.975 18.3357 89.5945 18.6212C89.2142 18.9064 88.7421 19.1442 88.178 19.3341C87.6136 19.5244 86.9639 19.6195 86.2285 19.6195Z" fill="#2B2A29"/>
<path d="M75.3695 19.4294C75.2302 19.4294 75.116 19.3849 75.0273 19.2961C74.9387 19.2075 74.8942 19.0934 74.8942 18.9538V11.7842H73.4109C73.2713 11.7842 73.1574 11.74 73.0686 11.6512C72.9798 11.5626 72.9356 11.4485 72.9356 11.3089V10.0157C72.9356 9.87639 72.9798 9.76221 73.0686 9.67344C73.1574 9.58466 73.2713 9.54039 73.4109 9.54039H74.8942V8.85559C74.8942 8.04427 75.0464 7.37857 75.3507 6.85897C75.655 6.33914 76.0986 5.95863 76.6821 5.71795C77.265 5.47702 77.9815 5.35655 78.8308 5.35655H80.2191C80.3584 5.35655 80.4726 5.40082 80.5614 5.4896C80.6501 5.57837 80.6944 5.69255 80.6944 5.83188V7.12506C80.6944 7.26463 80.6501 7.37857 80.5614 7.46759C80.4726 7.55612 80.3584 7.60063 80.2191 7.60063H78.945C78.4757 7.60063 78.1494 7.7148 77.9656 7.94291C77.7817 8.17102 77.6898 8.50701 77.6898 8.95089V9.54039H80.0289C80.1683 9.54039 80.2825 9.58466 80.3712 9.67344C80.46 9.76221 80.5045 9.87639 80.5045 10.0157V11.3089C80.5045 11.4485 80.46 11.5626 80.3712 11.6512C80.2825 11.74 80.1683 11.7842 80.0289 11.7842H77.6898V18.9538C77.6898 19.0934 77.6453 19.2075 77.5565 19.2961C77.468 19.3849 77.3601 19.4294 77.2334 19.4294H75.3695Z" fill="#2B2A29"/>
<path d="M69.056 19.4294C68.929 19.4294 68.8214 19.3849 68.7326 19.2961C68.6439 19.2075 68.5996 19.0934 68.5996 18.9538V10.0157C68.5996 9.87639 68.6439 9.76221 68.7326 9.67344C68.8214 9.58466 68.929 9.54039 69.056 9.54039H70.9576C71.0972 9.54039 71.2113 9.58466 71.3001 9.67344C71.3887 9.76221 71.4332 9.87639 71.4332 10.0157V18.9538C71.4332 19.0934 71.3887 19.2075 71.3001 19.2961C71.2113 19.3849 71.0972 19.4294 70.9576 19.4294H69.056Z" fill="#2B2A29"/>
<path d="M58.102 19.4294C57.9624 19.4294 57.8485 19.3849 57.7597 19.2961C57.6709 19.2075 57.6264 19.0934 57.6264 18.9538V6.59264C57.6264 6.45307 57.6709 6.33914 57.7597 6.25036C57.8485 6.16158 57.9624 6.11732 58.102 6.11732H60.2128C60.3524 6.11732 60.4665 6.16158 60.5551 6.25036C60.6441 6.33914 60.6884 6.45307 60.6884 6.59264V16.881H66.5836C66.7232 16.881 66.8371 16.9253 66.9259 17.014C67.0147 17.1028 67.059 17.217 67.059 17.3566V18.9538C67.059 19.0934 67.0147 19.2075 66.9259 19.2961C66.8371 19.3849 66.7232 19.4294 66.5836 19.4294H58.102Z" fill="#2B2A29"/>
<path d="M47.1289 19.4294C47.0021 19.4294 46.8945 19.3849 46.8057 19.2961C46.7169 19.2075 46.6726 19.0934 46.6726 18.9538V17.6797C46.6726 17.553 46.7012 17.4388 46.758 17.3374C46.8154 17.2361 46.8816 17.141 46.9578 17.0522L51.617 11.7462H47.3001C47.1605 11.7462 47.0466 11.702 46.9578 11.6132C46.8691 11.5244 46.8246 11.4165 46.8246 11.29V10.0157C46.8246 9.87639 46.8691 9.76221 46.9578 9.67344C47.0466 9.58466 47.1605 9.54039 47.3001 9.54039H54.7169C54.8562 9.54039 54.9704 9.58466 55.0592 9.67344C55.148 9.76221 55.1922 9.87639 55.1922 10.0157V11.3851C55.1922 11.499 55.1671 11.6004 55.1163 11.6892C55.0655 11.7779 55.0021 11.8667 54.9261 11.9555L50.362 17.2233H55.1163C55.243 17.2233 55.3509 17.2675 55.4395 17.3566C55.5282 17.4451 55.5727 17.553 55.5727 17.6797V18.9538C55.5727 19.0934 55.5282 19.2075 55.4395 19.2961C55.3509 19.3849 55.243 19.4294 55.1163 19.4294H47.1289Z" fill="#2B2A29"/>
<path fill-rule="evenodd" clip-rule="evenodd" d="M70.0023 5.32777C70.7846 5.32777 71.4191 5.96178 71.4191 6.74431C71.4191 7.52685 70.7846 8.1611 70.0023 8.1611C69.2198 8.1611 68.5856 7.52685 68.5856 6.74431C68.5856 5.96178 69.2198 5.32777 70.0023 5.32777Z" fill="#54AF3A"/>
<path d="M39.1037 19.6195C37.9878 19.6195 37.0115 19.4325 36.1748 19.0585C35.3381 18.6846 34.6915 18.1076 34.235 17.328C33.7788 16.5481 33.5505 15.5561 33.5505 14.3517V6.59264C33.5505 6.45307 33.595 6.33914 33.6835 6.25036C33.7725 6.16158 33.8865 6.11732 34.0258 6.11732H36.0989C36.2382 6.11732 36.3524 6.16158 36.4411 6.25036C36.5299 6.33914 36.5744 6.45307 36.5744 6.59264V14.3326C36.5744 15.2709 36.7962 15.9681 37.2399 16.4245C37.6838 16.881 38.3047 17.1091 39.1037 17.1091C39.8896 17.1091 40.5045 16.881 40.9484 16.4245C41.392 15.9681 41.6139 15.2709 41.6139 14.3326V6.59264C41.6139 6.45307 41.6615 6.33914 41.7566 6.25036C41.8516 6.16158 41.9627 6.11732 42.0892 6.11732H44.1811C44.3081 6.11732 44.4157 6.16158 44.5045 6.25036C44.5933 6.33914 44.6376 6.45307 44.6376 6.59264V14.3517C44.6376 15.5561 44.4095 16.5481 43.953 17.328C43.4965 18.1076 42.8562 18.6846 42.0323 19.0585C41.2082 19.4325 40.2319 19.6195 39.1037 19.6195Z" fill="#2B2A29"/>
<path fill-rule="evenodd" clip-rule="evenodd" d="M14.0829 3.40783C9.64289 3.40783 5.38406 6.26342 3.95856 10.909C3.5125 12.3616 3.39397 13.8365 3.55943 15.2542L8.34487 11.9274C8.56427 11.775 8.72053 11.7344 8.88986 11.7344C9.05919 11.7344 9.2157 11.775 9.4351 11.9274L11.9837 13.6993L17.9378 9.56023C18.1572 9.40784 18.3137 9.36719 18.483 9.36719C18.6523 9.36719 18.8086 9.40784 19.028 9.56023L24.6951 13.5C24.431 8.05902 19.9419 3.40783 14.0829 3.40783ZM4.12813 17.6534C5.22658 20.6693 7.67578 23.1519 10.9828 24.1681C16.5848 25.8894 22.513 22.747 24.2341 17.1396C24.3354 16.8099 24.4196 16.4799 24.4876 16.1505L18.483 11.976L13.9939 15.0965L15.8212 16.367C16.1526 16.5687 16.3737 16.9332 16.3737 17.3495C16.3737 17.9845 15.8591 18.4993 15.2246 18.4993C15.0106 18.4993 14.7866 18.4129 14.5669 18.2898L8.88986 14.3432L4.12813 17.6534ZM2.49726 20.1759C-2.94637 9.90034 6.80036 -1.95864 17.9508 1.46782C24.8862 3.59869 28.7762 10.94 26.6453 17.881C23.2266 29.0184 7.98275 30.5312 2.49726 20.1759Z" fill="#54AF3A"/>
</svg>
